<svg width="32" height="32" viewBox="0 0 32 32" fill="none" xmlns="http://www.w3.org/2000/svg">
<rect width="32" height="32" rx="8" fill="white"/>
<rect x="0.5" y="0.5" width="31" height="31" rx="7.5" stroke="#1E1E1E" stroke-opacity="0.1"/>
<path d="M21.6668 19.3332C21.9237 19.3333 22.1706 19.4323 22.3564 19.6095C22.5423 19.7867 22.6529 20.0286 22.6652 20.2852C22.6775 20.5417 22.5907 20.7931 22.4227 20.9873C22.2547 21.1816 22.0185 21.3038 21.7628 21.3285L21.6668 21.3332H11.0002C10.7434 21.3331 10.4965 21.2342 10.3106 21.0569C10.1247 20.8797 10.0142 20.6378 10.0018 20.3813C9.98949 20.1248 10.0763 19.8733 10.2443 19.6791C10.4123 19.4848 10.6486 19.3627 10.9042 19.3379L11.0002 19.3332H21.6668ZM21.6668 14.6665C21.9321 14.6665 22.1864 14.7719 22.374 14.9594C22.5615 15.147 22.6668 15.4013 22.6668 15.6665C22.6668 15.9318 22.5615 16.1861 22.374 16.3737C22.1864 16.5612 21.9321 16.6665 21.6668 16.6665H11.0002C10.735 16.6665 10.4806 16.5612 10.2931 16.3737C10.1055 16.1861 10.0002 15.9318 10.0002 15.6665C10.0002 15.4013 10.1055 15.147 10.2931 14.9594C10.4806 14.7719 10.735 14.6665 11.0002 14.6665H21.6668ZM21.6668 9.99988C21.9321 9.99988 22.1864 10.1052 22.374 10.2928C22.5615 10.4803 22.6668 10.7347 22.6668 10.9999C22.6668 11.2651 22.5615 11.5194 22.374 11.707C22.1864 11.8945 21.9321 11.9999 21.6668 11.9999H11.0002C10.735 11.9999 10.4806 11.8945 10.2931 11.707C10.1055 11.5194 10.0002 11.2651 10.0002 10.9999C10.0002 10.7347 10.1055 10.4803 10.2931 10.2928C10.4806 10.1052 10.735 9.99988 11.0002 9.99988H21.6668Z" fill="#1E1E1E" fill-opacity="0.8"/>
</svg>
